<svg xmlns="http://www.w3.org/2000/svg" data-name="Layer 1" viewBox="0 0 100 125" x="0px" y="0px"><defs><style>.cls-1{stroke:#000;stroke-miterlimit:10;stroke-width:0.01px;}</style></defs><title>collections_09</title><path class="cls-1" d="M50,29.11a9.2,9.2,0,1,0-9.2-9.2A9.21,9.21,0,0,0,50,29.11Zm0-14.4a5.2,5.2,0,1,1-5.2,5.2A5.21,5.21,0,0,1,50,14.71ZM50,40.8A9.2,9.2,0,1,0,59.2,50,9.21,9.21,0,0,0,50,40.8Zm0,14.4A5.2,5.2,0,1,1,55.2,50,5.21,5.21,0,0,1,50,55.2Zm0,15.69a9.2,9.2,0,1,0,9.2,9.2A9.21,9.21,0,0,0,50,70.89Zm0,14.4a5.2,5.2,0,1,1,5.2-5.2A5.21,5.21,0,0,1,50,85.29Z"/><text x="0" y="115" fill="#000000" font-size="5px" font-weight="bold" font-family="'Helvetica Neue', Helvetica, Arial-Unicode, Arial, Sans-serif">Created by Hare Krishna</text><text x="0" y="120" fill="#000000" font-size="5px" font-weight="bold" font-family="'Helvetica Neue', Helvetica, Arial-Unicode, Arial, Sans-serif">from the Noun Project</text></svg>